<svg xmlns="http://www.w3.org/2000/svg" width="1580" height="179" viewBox="0 0 1580 179">
  <g id="Group_30" data-name="Group 30" transform="translate(-172 -1223)">
    <text id="M" transform="translate(331 1397)" font-size="18" font-family="SegoeUI, Segoe UI" opacity="0.599"><tspan x="0" y="0">M</tspan></text>
    <text id="M-2" data-name="M" transform="translate(1097 1397)" font-size="18" font-family="SegoeUI, Segoe UI" opacity="0.599"><tspan x="0" y="0">M</tspan></text>
    <text id="M-3" data-name="M" transform="translate(525 1397)" font-size="18" font-family="SegoeUI, Segoe UI" opacity="0.599"><tspan x="0" y="0">M</tspan></text>
    <text id="M-4" data-name="M" transform="translate(1291 1397)" font-size="18" font-family="SegoeUI, Segoe UI" opacity="0.599"><tspan x="0" y="0">M</tspan></text>
    <text id="M-5" data-name="M" transform="translate(719 1397)" font-size="18" font-family="SegoeUI, Segoe UI" opacity="0.599"><tspan x="0" y="0">M</tspan></text>
    <text id="M-6" data-name="M" transform="translate(1485 1397)" font-size="18" font-family="SegoeUI, Segoe UI" opacity="0.599"><tspan x="0" y="0">M</tspan></text>
    <text id="M-7" data-name="M" transform="translate(904 1397)" font-size="18" font-family="SegoeUI, Segoe UI" opacity="0.599"><tspan x="0" y="0">M</tspan></text>
    <text id="M-8" data-name="M" transform="translate(1670 1397)" font-size="18" font-family="SegoeUI, Segoe UI" opacity="0.599"><tspan x="0" y="0">M</tspan></text>
    <text id="E" transform="translate(239 1397)" font-size="18" font-family="SegoeUI, Segoe UI" opacity="0.599"><tspan x="0" y="0">E</tspan></text>
    <text id="E-2" data-name="E" transform="translate(1005 1397)" font-size="18" font-family="SegoeUI, Segoe UI" opacity="0.599"><tspan x="0" y="0">E</tspan></text>
    <text id="E-3" data-name="E" transform="translate(429 1397)" font-size="18" font-family="SegoeUI, Segoe UI" opacity="0.599"><tspan x="0" y="0">E</tspan></text>
    <text id="E-4" data-name="E" transform="translate(1195 1397)" font-size="18" font-family="SegoeUI, Segoe UI" opacity="0.599"><tspan x="0" y="0">E</tspan></text>
    <text id="E-5" data-name="E" transform="translate(623 1397)" font-size="18" font-family="SegoeUI, Segoe UI" opacity="0.599"><tspan x="0" y="0">E</tspan></text>
    <text id="E-6" data-name="E" transform="translate(1389 1397)" font-size="18" font-family="SegoeUI, Segoe UI" opacity="0.599"><tspan x="0" y="0">E</tspan></text>
    <text id="E-7" data-name="E" transform="translate(817 1397)" font-size="18" font-family="SegoeUI, Segoe UI" opacity="0.599"><tspan x="0" y="0">E</tspan></text>
    <text id="E-8" data-name="E" transform="translate(1583 1397)" font-size="18" font-family="SegoeUI, Segoe UI" opacity="0.599"><tspan x="0" y="0">E</tspan></text>
    <g id="Group_11" data-name="Group 11" transform="translate(-906 -430)">
      <g id="Ellipse_7" data-name="Ellipse 7" transform="translate(1266 1693)" fill="none" stroke="#3280a7" stroke-width="16" opacity="0.35">
        <ellipse cx="74" cy="34.5" rx="74" ry="34.5" stroke="none"/>
        <ellipse cx="74" cy="34.5" rx="66" ry="26.5" fill="none"/>
      </g>
      <g id="Ellipse_8" data-name="Ellipse 8" transform="translate(1270 1695)" fill="none" stroke="#3280a7" stroke-width="8">
        <ellipse cx="70.5" cy="33" rx="70.5" ry="33" stroke="none"/>
        <ellipse cx="70.5" cy="33" rx="66.5" ry="29" fill="none"/>
      </g>
    </g>
    <g id="Group_22" data-name="Group 22" transform="translate(-140 -430)">
      <g id="Ellipse_7-2" data-name="Ellipse 7" transform="translate(1266 1693)" fill="none" stroke="#3280a7" stroke-width="16" opacity="0.35">
        <ellipse cx="74" cy="34.5" rx="74" ry="34.5" stroke="none"/>
        <ellipse cx="74" cy="34.5" rx="66" ry="26.5" fill="none"/>
      </g>
      <g id="Ellipse_8-2" data-name="Ellipse 8" transform="translate(1270 1695)" fill="none" stroke="#3280a7" stroke-width="8">
        <ellipse cx="70.5" cy="33" rx="70.5" ry="33" stroke="none"/>
        <ellipse cx="70.5" cy="33" rx="66.5" ry="29" fill="none"/>
      </g>
    </g>
    <g id="Group_10" data-name="Group 10" transform="translate(-906 -430)">
      <g id="Ellipse_17" data-name="Ellipse 17" transform="translate(1078 1693)" fill="none" stroke="#3280a7" stroke-width="16" opacity="0.35">
        <ellipse cx="74" cy="34.5" rx="74" ry="34.5" stroke="none"/>
        <ellipse cx="74" cy="34.5" rx="66" ry="26.5" fill="none"/>
      </g>
      <g id="Ellipse_18" data-name="Ellipse 18" transform="translate(1082 1695)" fill="none" stroke="#3280a7" stroke-width="8">
        <ellipse cx="70.5" cy="33" rx="70.5" ry="33" stroke="none"/>
        <ellipse cx="70.5" cy="33" rx="66.5" ry="29" fill="none"/>
      </g>
    </g>
    <g id="Group_29" data-name="Group 29" transform="translate(-140 -430)">
      <g id="Ellipse_17-2" data-name="Ellipse 17" transform="translate(1078 1693)" fill="none" stroke="#3280a7" stroke-width="16" opacity="0.35">
        <ellipse cx="74" cy="34.5" rx="74" ry="34.5" stroke="none"/>
        <ellipse cx="74" cy="34.5" rx="66" ry="26.5" fill="none"/>
      </g>
      <g id="Ellipse_18-2" data-name="Ellipse 18" transform="translate(1082 1695)" fill="none" stroke="#3280a7" stroke-width="8">
        <ellipse cx="70.5" cy="33" rx="70.5" ry="33" stroke="none"/>
        <ellipse cx="70.5" cy="33" rx="66.5" ry="29" fill="none"/>
      </g>
    </g>
    <g id="Group_12" data-name="Group 12" transform="translate(-906 -430)">
      <g id="Ellipse_13" data-name="Ellipse 13" transform="translate(1458 1693)" fill="none" stroke="#3280a7" stroke-width="16" opacity="0.35">
        <ellipse cx="74" cy="34.5" rx="74" ry="34.5" stroke="none"/>
        <ellipse cx="74" cy="34.5" rx="66" ry="26.5" fill="none"/>
      </g>
      <g id="Ellipse_14" data-name="Ellipse 14" transform="translate(1462 1695)" fill="none" stroke="#3280a7" stroke-width="8">
        <ellipse cx="70.5" cy="33" rx="70.5" ry="33" stroke="none"/>
        <ellipse cx="70.5" cy="33" rx="66.5" ry="29" fill="none"/>
      </g>
    </g>
    <g id="Group_23" data-name="Group 23" transform="translate(-140 -430)">
      <g id="Ellipse_13-2" data-name="Ellipse 13" transform="translate(1458 1693)" fill="none" stroke="#3280a7" stroke-width="16" opacity="0.35">
        <ellipse cx="74" cy="34.5" rx="74" ry="34.5" stroke="none"/>
        <ellipse cx="74" cy="34.5" rx="66" ry="26.5" fill="none"/>
      </g>
      <g id="Ellipse_14-2" data-name="Ellipse 14" transform="translate(1462 1695)" fill="none" stroke="#3280a7" stroke-width="8">
        <ellipse cx="70.5" cy="33" rx="70.5" ry="33" stroke="none"/>
        <ellipse cx="70.5" cy="33" rx="66.5" ry="29" fill="none"/>
      </g>
    </g>
    <g id="Group_13" data-name="Group 13" transform="translate(-906 -430)">
      <g id="Ellipse_21" data-name="Ellipse 21" transform="translate(1648 1693)" fill="none" stroke="#3280a7" stroke-width="16" opacity="0.35">
        <ellipse cx="74" cy="34.5" rx="74" ry="34.5" stroke="none"/>
        <ellipse cx="74" cy="34.5" rx="66" ry="26.5" fill="none"/>
      </g>
      <g id="Ellipse_22" data-name="Ellipse 22" transform="translate(1652 1695)" fill="none" stroke="#3280a7" stroke-width="8">
        <ellipse cx="70.5" cy="33" rx="70.5" ry="33" stroke="none"/>
        <ellipse cx="70.5" cy="33" rx="66.5" ry="29" fill="none"/>
      </g>
    </g>
    <g id="Group_24" data-name="Group 24" transform="translate(-140 -430)">
      <g id="Ellipse_21-2" data-name="Ellipse 21" transform="translate(1648 1693)" fill="none" stroke="#3280a7" stroke-width="16" opacity="0.35">
        <ellipse cx="74" cy="34.5" rx="74" ry="34.5" stroke="none"/>
        <ellipse cx="74" cy="34.5" rx="66" ry="26.5" fill="none"/>
      </g>
      <g id="Ellipse_22-2" data-name="Ellipse 22" transform="translate(1652 1695)" fill="none" stroke="#3280a7" stroke-width="8">
        <ellipse cx="70.5" cy="33" rx="70.5" ry="33" stroke="none"/>
        <ellipse cx="70.5" cy="33" rx="66.5" ry="29" fill="none"/>
      </g>
    </g>
    <g id="Group_5" data-name="Group 5" transform="translate(-906 -430)">
      <g id="Ellipse_6" data-name="Ellipse 6" transform="translate(1172 1653)" fill="none" stroke="#d7416e" stroke-width="16" opacity="0.35">
        <circle cx="74" cy="74" r="74" stroke="none"/>
        <circle cx="74" cy="74" r="66" fill="none"/>
      </g>
      <g id="Ellipse_5" data-name="Ellipse 5" transform="translate(1176 1657)" fill="none" stroke="#d7416e" stroke-width="8">
        <circle cx="70.5" cy="70.5" r="70.5" stroke="none"/>
        <circle cx="70.5" cy="70.5" r="66.5" fill="none"/>
      </g>
    </g>
    <g id="Group_25" data-name="Group 25" transform="translate(-140 -430)">
      <g id="Ellipse_6-2" data-name="Ellipse 6" transform="translate(1172 1653)" fill="none" stroke="#d7416e" stroke-width="16" opacity="0.35">
        <circle cx="74" cy="74" r="74" stroke="none"/>
        <circle cx="74" cy="74" r="66" fill="none"/>
      </g>
      <g id="Ellipse_5-2" data-name="Ellipse 5" transform="translate(1176 1657)" fill="none" stroke="#d7416e" stroke-width="8">
        <circle cx="70.5" cy="70.5" r="70.5" stroke="none"/>
        <circle cx="70.5" cy="70.5" r="66.5" fill="none"/>
      </g>
    </g>
    <g id="Group_6" data-name="Group 6" transform="translate(-906 -430)">
      <g id="Ellipse_9" data-name="Ellipse 9" transform="translate(1362 1653)" fill="none" stroke="#d7416e" stroke-width="16" opacity="0.35">
        <circle cx="74" cy="74" r="74" stroke="none"/>
        <circle cx="74" cy="74" r="66" fill="none"/>
      </g>
      <g id="Ellipse_10" data-name="Ellipse 10" transform="translate(1366 1657)" fill="none" stroke="#d7416e" stroke-width="8">
        <circle cx="70.5" cy="70.5" r="70.5" stroke="none"/>
        <circle cx="70.5" cy="70.5" r="66.5" fill="none"/>
      </g>
    </g>
    <g id="Group_26" data-name="Group 26" transform="translate(-140 -430)">
      <g id="Ellipse_9-2" data-name="Ellipse 9" transform="translate(1362 1653)" fill="none" stroke="#d7416e" stroke-width="16" opacity="0.35">
        <circle cx="74" cy="74" r="74" stroke="none"/>
        <circle cx="74" cy="74" r="66" fill="none"/>
      </g>
      <g id="Ellipse_10-2" data-name="Ellipse 10" transform="translate(1366 1657)" fill="none" stroke="#d7416e" stroke-width="8">
        <circle cx="70.5" cy="70.5" r="70.5" stroke="none"/>
        <circle cx="70.5" cy="70.5" r="66.5" fill="none"/>
      </g>
    </g>
    <g id="Group_7" data-name="Group 7" transform="translate(-906 -430)">
      <g id="Ellipse_11" data-name="Ellipse 11" transform="translate(1554 1653)" fill="none" stroke="#d7416e" stroke-width="16" opacity="0.35">
        <circle cx="74" cy="74" r="74" stroke="none"/>
        <circle cx="74" cy="74" r="66" fill="none"/>
      </g>
      <g id="Ellipse_12" data-name="Ellipse 12" transform="translate(1558 1657)" fill="none" stroke="#d7416e" stroke-width="8">
        <circle cx="70.5" cy="70.5" r="70.5" stroke="none"/>
        <circle cx="70.5" cy="70.5" r="66.5" fill="none"/>
      </g>
    </g>
    <g id="Group_27" data-name="Group 27" transform="translate(-140 -430)">
      <g id="Ellipse_11-2" data-name="Ellipse 11" transform="translate(1554 1653)" fill="none" stroke="#d7416e" stroke-width="16" opacity="0.35">
        <circle cx="74" cy="74" r="74" stroke="none"/>
        <circle cx="74" cy="74" r="66" fill="none"/>
      </g>
      <g id="Ellipse_12-2" data-name="Ellipse 12" transform="translate(1558 1657)" fill="none" stroke="#d7416e" stroke-width="8">
        <circle cx="70.5" cy="70.5" r="70.5" stroke="none"/>
        <circle cx="70.5" cy="70.5" r="66.5" fill="none"/>
      </g>
    </g>
    <g id="Group_8" data-name="Group 8" transform="translate(-906 -430)">
      <g id="Ellipse_19" data-name="Ellipse 19" transform="translate(1744 1653)" fill="none" stroke="#d7416e" stroke-width="16" opacity="0.35">
        <circle cx="74" cy="74" r="74" stroke="none"/>
        <circle cx="74" cy="74" r="66" fill="none"/>
      </g>
      <g id="Ellipse_20" data-name="Ellipse 20" transform="translate(1748 1657)" fill="none" stroke="#d7416e" stroke-width="8">
        <circle cx="70.5" cy="70.5" r="70.5" stroke="none"/>
        <circle cx="70.5" cy="70.5" r="66.5" fill="none"/>
      </g>
    </g>
    <g id="Group_28" data-name="Group 28" transform="translate(-140 -430)">
      <g id="Ellipse_19-2" data-name="Ellipse 19" transform="translate(1744 1653)" fill="none" stroke="#d7416e" stroke-width="16" opacity="0.35">
        <circle cx="74" cy="74" r="74" stroke="none"/>
        <circle cx="74" cy="74" r="66" fill="none"/>
      </g>
      <g id="Ellipse_20-2" data-name="Ellipse 20" transform="translate(1748 1657)" fill="none" stroke="#d7416e" stroke-width="8">
        <circle cx="70.5" cy="70.5" r="70.5" stroke="none"/>
        <circle cx="70.5" cy="70.5" r="66.5" fill="none"/>
      </g>
    </g>
  </g>
</svg>
