<svg xmlns="http://www.w3.org/2000/svg" width="3742" height="166" viewBox="0 0 3742 166">
  <g id="Group_21" data-name="Group 21" transform="translate(-13 -428)" opacity="0.961">
    <rect id="Rectangle_8" data-name="Rectangle 8" width="12" height="4" rx="2" transform="translate(137 494)" fill="#c2c9d1"/>
    <rect id="Rectangle_30" data-name="Rectangle 30" width="12" height="4" rx="2" transform="translate(829 498)" fill="#c2c9d1"/>
    <rect id="Rectangle_52" data-name="Rectangle 52" width="12" height="4" rx="2" transform="translate(1481 502)" fill="#c2c9d1"/>
    <rect id="Rectangle_95" data-name="Rectangle 95" width="12" height="4" rx="2" transform="translate(2274 502)" fill="#c2c9d1"/>
    <rect id="Rectangle_113" data-name="Rectangle 113" width="12" height="4" rx="2" transform="translate(2743 502)" fill="#c2c9d1"/>
    <rect id="Rectangle_131" data-name="Rectangle 131" width="12" height="4" rx="2" transform="translate(3198 502)" fill="#c2c9d1"/>
    <rect id="Rectangle_149" data-name="Rectangle 149" width="12" height="4" rx="2" transform="translate(3660 502)" fill="#c2c9d1"/>
    <rect id="Rectangle_21" data-name="Rectangle 21" width="12" height="4" rx="2" transform="translate(553 522) rotate(180)" fill="#c2c9d1"/>
    <rect id="Rectangle_44" data-name="Rectangle 44" width="12" height="4" rx="2" transform="translate(1245 526) rotate(180)" fill="#c2c9d1"/>
    <rect id="Rectangle_103" data-name="Rectangle 103" width="12" height="4" rx="2" transform="translate(2038 526) rotate(180)" fill="#c2c9d1"/>
    <rect id="Rectangle_121" data-name="Rectangle 121" width="12" height="4" rx="2" transform="translate(2507 526) rotate(180)" fill="#c2c9d1"/>
    <rect id="Rectangle_139" data-name="Rectangle 139" width="12" height="4" rx="2" transform="translate(2962 526) rotate(180)" fill="#c2c9d1"/>
    <rect id="Rectangle_157" data-name="Rectangle 157" width="12" height="4" rx="2" transform="translate(3424 526) rotate(180)" fill="#c2c9d1"/>
    <rect id="Rectangle_66" data-name="Rectangle 66" width="12" height="4" rx="2" transform="translate(1897 530) rotate(180)" fill="#c2c9d1"/>
    <rect id="Rectangle_15" data-name="Rectangle 15" width="12" height="4" rx="2" transform="translate(79 529)" fill="#c2c9d1"/>
    <rect id="Rectangle_36" data-name="Rectangle 36" width="12" height="4" rx="2" transform="translate(771 533)" fill="#c2c9d1"/>
    <rect id="Rectangle_58" data-name="Rectangle 58" width="12" height="4" rx="2" transform="translate(1423 537)" fill="#c2c9d1"/>
    <rect id="Rectangle_93" data-name="Rectangle 93" width="12" height="4" rx="2" transform="translate(2216 537)" fill="#c2c9d1"/>
    <rect id="Rectangle_111" data-name="Rectangle 111" width="12" height="4" rx="2" transform="translate(2685 537)" fill="#c2c9d1"/>
    <rect id="Rectangle_129" data-name="Rectangle 129" width="12" height="4" rx="2" transform="translate(3140 537)" fill="#c2c9d1"/>
    <rect id="Rectangle_147" data-name="Rectangle 147" width="12" height="4" rx="2" transform="translate(3602 537)" fill="#c2c9d1"/>
    <rect id="Rectangle_23" data-name="Rectangle 23" width="12" height="4" rx="2" transform="translate(611 487) rotate(180)" fill="#c2c9d1"/>
    <rect id="Rectangle_48" data-name="Rectangle 48" width="12" height="4" rx="2" transform="translate(1303 491) rotate(180)" fill="#c2c9d1"/>
    <rect id="Rectangle_98" data-name="Rectangle 98" width="12" height="4" rx="2" transform="translate(2096 491) rotate(180)" fill="#c2c9d1"/>
    <rect id="Rectangle_116" data-name="Rectangle 116" width="12" height="4" rx="2" transform="translate(2565 491) rotate(180)" fill="#c2c9d1"/>
    <rect id="Rectangle_134" data-name="Rectangle 134" width="12" height="4" rx="2" transform="translate(3020 491) rotate(180)" fill="#c2c9d1"/>
    <rect id="Rectangle_152" data-name="Rectangle 152" width="12" height="4" rx="2" transform="translate(3482 491) rotate(180)" fill="#c2c9d1"/>
    <rect id="Rectangle_16" data-name="Rectangle 16" width="12" height="4" rx="2" transform="translate(157 582)" fill="#c2c9d1"/>
    <rect id="Rectangle_45" data-name="Rectangle 45" width="12" height="4" rx="2" transform="translate(849 586)" fill="#c2c9d1"/>
    <rect id="Rectangle_67" data-name="Rectangle 67" width="12" height="4" rx="2" transform="translate(1501 590)" fill="#c2c9d1"/>
    <rect id="Rectangle_90" data-name="Rectangle 90" width="12" height="4" rx="2" transform="translate(2294 590)" fill="#c2c9d1"/>
    <rect id="Rectangle_108" data-name="Rectangle 108" width="12" height="4" rx="2" transform="translate(2763 590)" fill="#c2c9d1"/>
    <rect id="Rectangle_126" data-name="Rectangle 126" width="12" height="4" rx="2" transform="translate(3218 590)" fill="#c2c9d1"/>
    <rect id="Rectangle_144" data-name="Rectangle 144" width="12" height="4" rx="2" transform="translate(3680 590)" fill="#c2c9d1"/>
    <rect id="Rectangle_28" data-name="Rectangle 28" width="12" height="4" rx="2" transform="translate(533 434) rotate(180)" fill="#c2c9d1"/>
    <rect id="Rectangle_43" data-name="Rectangle 43" width="12" height="4" rx="2" transform="translate(1225 438) rotate(180)" fill="#c2c9d1"/>
    <rect id="Rectangle_105" data-name="Rectangle 105" width="12" height="4" rx="2" transform="translate(2018 438) rotate(180)" fill="#c2c9d1"/>
    <rect id="Rectangle_123" data-name="Rectangle 123" width="12" height="4" rx="2" transform="translate(2487 438) rotate(180)" fill="#c2c9d1"/>
    <rect id="Rectangle_141" data-name="Rectangle 141" width="12" height="4" rx="2" transform="translate(2942 438) rotate(180)" fill="#c2c9d1"/>
    <rect id="Rectangle_159" data-name="Rectangle 159" width="12" height="4" rx="2" transform="translate(3404 438) rotate(180)" fill="#c2c9d1"/>
    <rect id="Rectangle_65" data-name="Rectangle 65" width="12" height="4" rx="2" transform="translate(1877 442) rotate(180)" fill="#c2c9d1"/>
    <rect id="Rectangle_17" data-name="Rectangle 17" width="12" height="4" rx="2" transform="translate(13 571)" fill="#c2c9d1"/>
    <rect id="Rectangle_42" data-name="Rectangle 42" width="12" height="4" rx="2" transform="translate(705 575)" fill="#c2c9d1"/>
    <rect id="Rectangle_64" data-name="Rectangle 64" width="12" height="4" rx="2" transform="translate(1357 579)" fill="#c2c9d1"/>
    <rect id="Rectangle_91" data-name="Rectangle 91" width="12" height="4" rx="2" transform="translate(2150 579)" fill="#c2c9d1"/>
    <rect id="Rectangle_109" data-name="Rectangle 109" width="12" height="4" rx="2" transform="translate(2619 579)" fill="#c2c9d1"/>
    <rect id="Rectangle_127" data-name="Rectangle 127" width="12" height="4" rx="2" transform="translate(3074 579)" fill="#c2c9d1"/>
    <rect id="Rectangle_145" data-name="Rectangle 145" width="12" height="4" rx="2" transform="translate(3536 579)" fill="#c2c9d1"/>
    <rect id="Rectangle_26" data-name="Rectangle 26" width="12" height="4" rx="2" transform="translate(677 445) rotate(180)" fill="#c2c9d1"/>
    <rect id="Rectangle_51" data-name="Rectangle 51" width="12" height="4" rx="2" transform="translate(1369 449) rotate(180)" fill="#c2c9d1"/>
    <rect id="Rectangle_101" data-name="Rectangle 101" width="12" height="4" rx="2" transform="translate(2162 449) rotate(180)" fill="#c2c9d1"/>
    <rect id="Rectangle_119" data-name="Rectangle 119" width="12" height="4" rx="2" transform="translate(2631 449) rotate(180)" fill="#c2c9d1"/>
    <rect id="Rectangle_137" data-name="Rectangle 137" width="12" height="4" rx="2" transform="translate(3086 449) rotate(180)" fill="#c2c9d1"/>
    <rect id="Rectangle_155" data-name="Rectangle 155" width="12" height="4" rx="2" transform="translate(3548 449) rotate(180)" fill="#c2c9d1"/>
    <rect id="Rectangle_18" data-name="Rectangle 18" width="12" height="4" rx="2" transform="translate(354 580)" fill="#c2c9d1"/>
    <rect id="Rectangle_46" data-name="Rectangle 46" width="12" height="4" rx="2" transform="translate(1046 584)" fill="#c2c9d1"/>
    <rect id="Rectangle_68" data-name="Rectangle 68" width="12" height="4" rx="2" transform="translate(1698 588)" fill="#c2c9d1"/>
    <rect id="Rectangle_29" data-name="Rectangle 29" width="12" height="4" rx="2" transform="translate(336 436) rotate(180)" fill="#c2c9d1"/>
    <rect id="Rectangle_37" data-name="Rectangle 37" width="12" height="4" rx="2" transform="translate(1028 440) rotate(180)" fill="#c2c9d1"/>
    <rect id="Rectangle_59" data-name="Rectangle 59" width="12" height="4" rx="2" transform="translate(1680 444) rotate(180)" fill="#c2c9d1"/>
    <rect id="Rectangle_9" data-name="Rectangle 9" width="12" height="4" rx="2" transform="translate(205 536)" fill="#c2c9d1"/>
    <rect id="Rectangle_38" data-name="Rectangle 38" width="12" height="4" rx="2" transform="translate(897 540)" fill="#c2c9d1"/>
    <rect id="Rectangle_60" data-name="Rectangle 60" width="12" height="4" rx="2" transform="translate(1549 544)" fill="#c2c9d1"/>
    <rect id="Rectangle_92" data-name="Rectangle 92" width="12" height="4" rx="2" transform="translate(2342 544)" fill="#c2c9d1"/>
    <rect id="Rectangle_110" data-name="Rectangle 110" width="12" height="4" rx="2" transform="translate(2811 544)" fill="#c2c9d1"/>
    <rect id="Rectangle_128" data-name="Rectangle 128" width="12" height="4" rx="2" transform="translate(3266 544)" fill="#c2c9d1"/>
    <rect id="Rectangle_146" data-name="Rectangle 146" width="12" height="4" rx="2" transform="translate(3728 544)" fill="#c2c9d1"/>
    <rect id="Rectangle_24" data-name="Rectangle 24" width="12" height="4" rx="2" transform="translate(485 480) rotate(180)" fill="#c2c9d1"/>
    <rect id="Rectangle_40" data-name="Rectangle 40" width="12" height="4" rx="2" transform="translate(1177 484) rotate(180)" fill="#c2c9d1"/>
    <rect id="Rectangle_106" data-name="Rectangle 106" width="12" height="4" rx="2" transform="translate(1970 484) rotate(180)" fill="#c2c9d1"/>
    <rect id="Rectangle_124" data-name="Rectangle 124" width="12" height="4" rx="2" transform="translate(2439 484) rotate(180)" fill="#c2c9d1"/>
    <rect id="Rectangle_142" data-name="Rectangle 142" width="12" height="4" rx="2" transform="translate(2894 484) rotate(180)" fill="#c2c9d1"/>
    <rect id="Rectangle_160" data-name="Rectangle 160" width="12" height="4" rx="2" transform="translate(3356 484) rotate(180)" fill="#c2c9d1"/>
    <rect id="Rectangle_62" data-name="Rectangle 62" width="12" height="4" rx="2" transform="translate(1829 488) rotate(180)" fill="#c2c9d1"/>
    <rect id="Rectangle_10" data-name="Rectangle 10" width="12" height="4" rx="2" transform="translate(281 509)" fill="#c2c9d1"/>
    <rect id="Rectangle_35" data-name="Rectangle 35" width="12" height="4" rx="2" transform="translate(973 513)" fill="#c2c9d1"/>
    <rect id="Rectangle_57" data-name="Rectangle 57" width="12" height="4" rx="2" transform="translate(1625 517)" fill="#c2c9d1"/>
    <rect id="Rectangle_27" data-name="Rectangle 27" width="12" height="4" rx="2" transform="translate(409 507) rotate(180)" fill="#c2c9d1"/>
    <rect id="Rectangle_39" data-name="Rectangle 39" width="12" height="4" rx="2" transform="translate(1101 511) rotate(180)" fill="#c2c9d1"/>
    <rect id="Rectangle_61" data-name="Rectangle 61" width="12" height="4" rx="2" transform="translate(1753 515) rotate(180)" fill="#c2c9d1"/>
    <rect id="Rectangle_11" data-name="Rectangle 11" width="12" height="4" rx="2" transform="translate(134 448)" fill="#c2c9d1"/>
    <rect id="Rectangle_31" data-name="Rectangle 31" width="12" height="4" rx="2" transform="translate(826 452)" fill="#c2c9d1"/>
    <rect id="Rectangle_53" data-name="Rectangle 53" width="12" height="4" rx="2" transform="translate(1478 456)" fill="#c2c9d1"/>
    <rect id="Rectangle_100" data-name="Rectangle 100" width="12" height="4" rx="2" transform="translate(2271 456)" fill="#c2c9d1"/>
    <rect id="Rectangle_118" data-name="Rectangle 118" width="12" height="4" rx="2" transform="translate(2740 456)" fill="#c2c9d1"/>
    <rect id="Rectangle_136" data-name="Rectangle 136" width="12" height="4" rx="2" transform="translate(3195 456)" fill="#c2c9d1"/>
    <rect id="Rectangle_154" data-name="Rectangle 154" width="12" height="4" rx="2" transform="translate(3657 456)" fill="#c2c9d1"/>
    <rect id="Rectangle_22" data-name="Rectangle 22" width="12" height="4" rx="2" transform="translate(556 568) rotate(180)" fill="#c2c9d1"/>
    <rect id="Rectangle_47" data-name="Rectangle 47" width="12" height="4" rx="2" transform="translate(1248 572) rotate(180)" fill="#c2c9d1"/>
    <rect id="Rectangle_102" data-name="Rectangle 102" width="12" height="4" rx="2" transform="translate(2041 572) rotate(180)" fill="#c2c9d1"/>
    <rect id="Rectangle_120" data-name="Rectangle 120" width="12" height="4" rx="2" transform="translate(2510 572) rotate(180)" fill="#c2c9d1"/>
    <rect id="Rectangle_138" data-name="Rectangle 138" width="12" height="4" rx="2" transform="translate(2965 572) rotate(180)" fill="#c2c9d1"/>
    <rect id="Rectangle_156" data-name="Rectangle 156" width="12" height="4" rx="2" transform="translate(3427 572) rotate(180)" fill="#c2c9d1"/>
    <rect id="Rectangle_69" data-name="Rectangle 69" width="12" height="4" rx="2" transform="translate(1900 576) rotate(180)" fill="#c2c9d1"/>
    <rect id="Rectangle_12" data-name="Rectangle 12" width="12" height="4" rx="2" transform="translate(220 454)" fill="#c2c9d1"/>
    <rect id="Rectangle_32" data-name="Rectangle 32" width="12" height="4" rx="2" transform="translate(912 458)" fill="#c2c9d1"/>
    <rect id="Rectangle_54" data-name="Rectangle 54" width="12" height="4" rx="2" transform="translate(1564 462)" fill="#c2c9d1"/>
    <rect id="Rectangle_99" data-name="Rectangle 99" width="12" height="4" rx="2" transform="translate(2357 462)" fill="#c2c9d1"/>
    <rect id="Rectangle_117" data-name="Rectangle 117" width="12" height="4" rx="2" transform="translate(2826 462)" fill="#c2c9d1"/>
    <rect id="Rectangle_135" data-name="Rectangle 135" width="12" height="4" rx="2" transform="translate(3281 462)" fill="#c2c9d1"/>
    <rect id="Rectangle_153" data-name="Rectangle 153" width="12" height="4" rx="2" transform="translate(3743 462)" fill="#c2c9d1"/>
    <rect id="Rectangle_25" data-name="Rectangle 25" width="12" height="4" rx="2" transform="translate(470 562) rotate(180)" fill="#c2c9d1"/>
    <rect id="Rectangle_41" data-name="Rectangle 41" width="12" height="4" rx="2" transform="translate(1162 566) rotate(180)" fill="#c2c9d1"/>
    <rect id="Rectangle_107" data-name="Rectangle 107" width="12" height="4" rx="2" transform="translate(1955 566) rotate(180)" fill="#c2c9d1"/>
    <rect id="Rectangle_125" data-name="Rectangle 125" width="12" height="4" rx="2" transform="translate(2424 566) rotate(180)" fill="#c2c9d1"/>
    <rect id="Rectangle_143" data-name="Rectangle 143" width="12" height="4" rx="2" transform="translate(2879 566) rotate(180)" fill="#c2c9d1"/>
    <rect id="Rectangle_161" data-name="Rectangle 161" width="12" height="4" rx="2" transform="translate(3341 566) rotate(180)" fill="#c2c9d1"/>
    <rect id="Rectangle_63" data-name="Rectangle 63" width="12" height="4" rx="2" transform="translate(1814 570) rotate(180)" fill="#c2c9d1"/>
    <rect id="Rectangle_13" data-name="Rectangle 13" width="12" height="4" rx="2" transform="translate(39 483)" fill="#c2c9d1"/>
    <rect id="Rectangle_33" data-name="Rectangle 33" width="12" height="4" rx="2" transform="translate(731 487)" fill="#c2c9d1"/>
    <rect id="Rectangle_55" data-name="Rectangle 55" width="12" height="4" rx="2" transform="translate(1383 491)" fill="#c2c9d1"/>
    <rect id="Rectangle_96" data-name="Rectangle 96" width="12" height="4" rx="2" transform="translate(2176 491)" fill="#c2c9d1"/>
    <rect id="Rectangle_114" data-name="Rectangle 114" width="12" height="4" rx="2" transform="translate(2645 491)" fill="#c2c9d1"/>
    <rect id="Rectangle_132" data-name="Rectangle 132" width="12" height="4" rx="2" transform="translate(3100 491)" fill="#c2c9d1"/>
    <rect id="Rectangle_150" data-name="Rectangle 150" width="12" height="4" rx="2" transform="translate(3562 491)" fill="#c2c9d1"/>
    <rect id="Rectangle_19" data-name="Rectangle 19" width="12" height="4" rx="2" transform="translate(651 533) rotate(180)" fill="#c2c9d1"/>
    <rect id="Rectangle_50" data-name="Rectangle 50" width="12" height="4" rx="2" transform="translate(1343 537) rotate(180)" fill="#c2c9d1"/>
    <rect id="Rectangle_94" data-name="Rectangle 94" width="12" height="4" rx="2" transform="translate(2136 537) rotate(180)" fill="#c2c9d1"/>
    <rect id="Rectangle_112" data-name="Rectangle 112" width="12" height="4" rx="2" transform="translate(2605 537) rotate(180)" fill="#c2c9d1"/>
    <rect id="Rectangle_130" data-name="Rectangle 130" width="12" height="4" rx="2" transform="translate(3060 537) rotate(180)" fill="#c2c9d1"/>
    <rect id="Rectangle_148" data-name="Rectangle 148" width="12" height="4" rx="2" transform="translate(3522 537) rotate(180)" fill="#c2c9d1"/>
    <rect id="Rectangle_14" data-name="Rectangle 14" width="12" height="4" rx="2" transform="translate(69 428)" fill="#c2c9d1"/>
    <rect id="Rectangle_34" data-name="Rectangle 34" width="12" height="4" rx="2" transform="translate(761 432)" fill="#c2c9d1"/>
    <rect id="Rectangle_56" data-name="Rectangle 56" width="12" height="4" rx="2" transform="translate(1413 436)" fill="#c2c9d1"/>
    <rect id="Rectangle_104" data-name="Rectangle 104" width="12" height="4" rx="2" transform="translate(2206 436)" fill="#c2c9d1"/>
    <rect id="Rectangle_122" data-name="Rectangle 122" width="12" height="4" rx="2" transform="translate(2675 436)" fill="#c2c9d1"/>
    <rect id="Rectangle_140" data-name="Rectangle 140" width="12" height="4" rx="2" transform="translate(3130 436)" fill="#c2c9d1"/>
    <rect id="Rectangle_158" data-name="Rectangle 158" width="12" height="4" rx="2" transform="translate(3592 436)" fill="#c2c9d1"/>
    <rect id="Rectangle_20" data-name="Rectangle 20" width="12" height="4" rx="2" transform="translate(621 588) rotate(180)" fill="#c2c9d1"/>
    <rect id="Rectangle_49" data-name="Rectangle 49" width="12" height="4" rx="2" transform="translate(1313 592) rotate(180)" fill="#c2c9d1"/>
    <rect id="Rectangle_97" data-name="Rectangle 97" width="12" height="4" rx="2" transform="translate(2106 592) rotate(180)" fill="#c2c9d1"/>
    <rect id="Rectangle_115" data-name="Rectangle 115" width="12" height="4" rx="2" transform="translate(2575 592) rotate(180)" fill="#c2c9d1"/>
    <rect id="Rectangle_133" data-name="Rectangle 133" width="12" height="4" rx="2" transform="translate(3030 592) rotate(180)" fill="#c2c9d1"/>
    <rect id="Rectangle_151" data-name="Rectangle 151" width="12" height="4" rx="2" transform="translate(3492 592) rotate(180)" fill="#c2c9d1"/>
  </g>
</svg>
