<svg xmlns="http://www.w3.org/2000/svg" width="1920.016" height="103.082" viewBox="0 0 1920.016 103.082">
  <path id="Path_33" data-name="Path 33" d="M0,751c0-14.419,0-19.875,0-41.2,11.094,5.641,41.293,5.47,49.952,4.955,69.005-4.1,74.383,20.955,162.26-.7,61.434-15.441,103.787-40.906,152.847-31.28s138.106,52.042,198.157,50.8,115.1-52,190.424-44.492,96.065,20.085,144.12,11.926,134.9-49.713,179.728-52.193,120.1-1.5,178.4,25.155,68.261,44.777,116.8,47.484,136.589-47.171,204.59-47.484,123.165,48.314,156.545,47.484,81.814-24.118,118.374-26.4,67.819,14.742,67.819,14.742l-.031,41.2" transform="translate(1920.016 751) rotate(180)" fill="#fff"/>
</svg>
