<svg xmlns="http://www.w3.org/2000/svg" width="1920.018" height="149.671" viewBox="0 0 1920.018 149.671">
  <path id="Path_35" data-name="Path 35" d="M0,779.1c0-37.861.016-43.343.016-76.966,42.807-2.407,74.542,3.5,105.5.938,49.378-4.092,218.284-10.781,267.344-1.155s94.272,7.185,154.323,5.945,181.689-18.4,257.013-10.885,112.521,14.253,160.575,6.094,93.832,2.48,138.662,0,141.6,8.958,214.172,0,80.544-2.707,129.08,0,81.683-4.539,149.684-4.853,135,5.682,168.376,4.853,91-12.074,117.517-7.639,32.635,8.17,57.753,6.7V844.073H0C0,809.233,0,803.2,0,779.1Z" transform="translate(1920.016 844.073) rotate(180)" fill="#dfe5ed"/>
</svg>
