<svg xmlns="http://www.w3.org/2000/svg" width="1920.039" height="109.027" viewBox="0 0 1920.039 109.027">
  <path id="Path_34" data-name="Path 34" d="M-.039,788.918c0-50.675,0-44.445,0-78.73,38.22.275,96.233,11.786,130.3,1.427,67.732-20.594,193.536-19.323,242.6-9.7s90.344,10.937,150.395,9.7S716.577,682.07,791.9,689.582s90.836,30.192,138.89,22.033,113.847-7.217,158.677-9.7,149.67-38.99,207.974-12.336,76.3-2.707,124.833,0,125.078,17.465,193.079,17.151,89.984-16.322,123.363-17.151,86.278,24.317,122.838,22.033S1920,710.2,1920,710.2v78.719Z" transform="translate(1920 788.918) rotate(180)" fill="#f0f2f4"/>
</svg>
