{
    "asset" : {
        "generator" : "Khronos glTF Blender I/O v1.5.17",
        "version" : "2.0"
    },
    "scene" : 0,
    "scenes" : [
        {
            "name" : "Scene",
            "nodes" : [
                0,
                1,
                2,
                3
            ]
        }
    ],
    "nodes" : [
        {
            "mesh" : 0,
            "name" : "1",
            "scale" : [
                0.0010000000474974513,
                0.0010000000474974513,
                0.0010000000474974513
            ]
        },
        {
            "mesh" : 1,
            "name" : "2",
            "scale" : [
                0.0010000000474974513,
                0.0010000000474974513,
                0.0010000000474974513
            ]
        },
        {
            "mesh" : 2,
            "name" : "3",
            "scale" : [
                0.0010000000474974513,
                0.0010000000474974513,
                0.0010000000474974513
            ]
        },
        {
            "mesh" : 3,
            "name" : "4",
            "scale" : [
                0.0010000000474974513,
                0.0010000000474974513,
                0.0010000000474974513
            ]
        }
    ],
    "materials" : [
        {
            "doubleSided" : true,
            "name" : "a0000000-0000-0000-0000-000000000000.012",
            "pbrMetallicRoughness" : {
                "baseColorFactor" : [
                    0.9803919792175293,
                    0.9803919792175293,
                    0.9803919792175293,
                    1
                ],
                "roughnessFactor" : 0.5
            }
        },
        {
            "doubleSided" : true,
            "name" : "a0000000-0000-0000-0000-000000000000.011",
            "pbrMetallicRoughness" : {
                "baseColorFactor" : [
                    0.9803919792175293,
                    0.9803919792175293,
                    0.9803919792175293,
                    1
                ],
                "roughnessFactor" : 0.5
            }
        },
        {
            "doubleSided" : true,
            "name" : "a0000000-0000-0000-0000-000000000000.010",
            "pbrMetallicRoughness" : {
                "baseColorFactor" : [
                    0.9803919792175293,
                    0.9803919792175293,
                    0.9803919792175293,
                    1
                ],
                "roughnessFactor" : 0.5
            }
        },
        {
            "doubleSided" : true,
            "name" : "a0000000-0000-0000-0000-000000000000.009",
            "pbrMetallicRoughness" : {
                "baseColorFactor" : [
                    0.9803919792175293,
                    0.9803919792175293,
                    0.9803919792175293,
                    1
                ],
                "roughnessFactor" : 0.5
            }
        }
    ],
    "meshes" : [
        {
            "name" : "mesh-a8596535-6e2d-427c-951f-e3c67d2ae2a7.001",
            "primitives" : [
                {
                    "attributes" : {
                        "POSITION" : 0,
                        "NORMAL" : 1,
                        "TEXCOORD_0" : 2
                    },
                    "indices" : 3,
                    "material" : 0
                }
            ]
        },
        {
            "name" : "mesh-fe3ea5f2-e215-46ec-9043-067071235890.001",
            "primitives" : [
                {
                    "attributes" : {
                        "POSITION" : 4,
                        "NORMAL" : 5,
                        "TEXCOORD_0" : 6
                    },
                    "indices" : 7,
                    "material" : 1
                }
            ]
        },
        {
            "name" : "mesh-abcf6ccb-ec06-4aef-9093-f1fd7a8c7327.001",
            "primitives" : [
                {
                    "attributes" : {
                        "POSITION" : 8,
                        "NORMAL" : 9,
                        "TEXCOORD_0" : 10
                    },
                    "indices" : 11,
                    "material" : 2
                }
            ]
        },
        {
            "name" : "mesh-a35c6937-97a3-47ed-bc41-cfc4ca681653.001",
            "primitives" : [
                {
                    "attributes" : {
                        "POSITION" : 12,
                        "NORMAL" : 13,
                        "TEXCOORD_0" : 14
                    },
                    "indices" : 15,
                    "material" : 3
                }
            ]
        }
    ],
    "accessors" : [
        {
            "bufferView" : 0,
            "componentType" : 5126,
            "count" : 114,
            "max" : [
                73.54486083984375,
                8.758821487426758,
                8.758821487426758
            ],
            "min" : [
                -73.54485321044922,
                -8.758821487426758,
                -8.758818626403809
            ],
            "type" : "VEC3"
        },
        {
            "bufferView" : 1,
            "componentType" : 5126,
            "count" : 114,
            "type" : "VEC3"
        },
        {
            "bufferView" : 2,
            "componentType" : 5126,
            "count" : 114,
            "type" : "VEC2"
        },
        {
            "bufferView" : 3,
            "componentType" : 5123,
            "count" : 336,
            "type" : "SCALAR"
        },
        {
            "bufferView" : 4,
            "componentType" : 5126,
            "count" : 2047,
            "max" : [
                73.54486083984375,
                14.667104721069336,
                14.667106628417969
            ],
            "min" : [
                -73.54486083984375,
                -14.667104721069336,
                -14.667104721069336
            ],
            "type" : "VEC3"
        },
        {
            "bufferView" : 5,
            "componentType" : 5126,
            "count" : 2047,
            "type" : "VEC3"
        },
        {
            "bufferView" : 6,
            "componentType" : 5126,
            "count" : 2047,
            "type" : "VEC2"
        },
        {
            "bufferView" : 7,
            "componentType" : 5123,
            "count" : 10848,
            "type" : "SCALAR"
        },
        {
            "bufferView" : 8,
            "componentType" : 5126,
            "count" : 3705,
            "max" : [
                73.54483795166016,
                25.806854248046875,
                25.806852340698242
            ],
            "min" : [
                -73.54486083984375,
                -25.806854248046875,
                -25.80685806274414
            ],
            "type" : "VEC3"
        },
        {
            "bufferView" : 9,
            "componentType" : 5126,
            "count" : 3705,
            "type" : "VEC3"
        },
        {
            "bufferView" : 10,
            "componentType" : 5126,
            "count" : 3705,
            "type" : "VEC2"
        },
        {
            "bufferView" : 11,
            "componentType" : 5123,
            "count" : 21504,
            "type" : "SCALAR"
        },
        {
            "bufferView" : 12,
            "componentType" : 5126,
            "count" : 8127,
            "max" : [
                73.54483032226562,
                43.14132308959961,
                43.14132308959961
            ],
            "min" : [
                -73.54486083984375,
                -43.14131546020508,
                -43.141326904296875
            ],
            "type" : "VEC3"
        },
        {
            "bufferView" : 13,
            "componentType" : 5126,
            "count" : 8127,
            "type" : "VEC3"
        },
        {
            "bufferView" : 14,
            "componentType" : 5126,
            "count" : 8127,
            "type" : "VEC2"
        },
        {
            "bufferView" : 15,
            "componentType" : 5123,
            "count" : 47616,
            "type" : "SCALAR"
        }
    ],
    "bufferViews" : [
        {
            "buffer" : 0,
            "byteLength" : 1368,
            "byteOffset" : 0
        },
        {
            "buffer" : 0,
            "byteLength" : 1368,
            "byteOffset" : 1368
        },
        {
            "buffer" : 0,
            "byteLength" : 912,
            "byteOffset" : 2736
        },
        {
            "buffer" : 0,
            "byteLength" : 672,
            "byteOffset" : 3648
        },
        {
            "buffer" : 0,
            "byteLength" : 24564,
            "byteOffset" : 4320
        },
        {
            "buffer" : 0,
            "byteLength" : 24564,
            "byteOffset" : 28884
        },
        {
            "buffer" : 0,
            "byteLength" : 16376,
            "byteOffset" : 53448
        },
        {
            "buffer" : 0,
            "byteLength" : 21696,
            "byteOffset" : 69824
        },
        {
            "buffer" : 0,
            "byteLength" : 44460,
            "byteOffset" : 91520
        },
        {
            "buffer" : 0,
            "byteLength" : 44460,
            "byteOffset" : 135980
        },
        {
            "buffer" : 0,
            "byteLength" : 29640,
            "byteOffset" : 180440
        },
        {
            "buffer" : 0,
            "byteLength" : 43008,
            "byteOffset" : 210080
        },
        {
            "buffer" : 0,
            "byteLength" : 97524,
            "byteOffset" : 253088
        },
        {
            "buffer" : 0,
            "byteLength" : 97524,
            "byteOffset" : 350612
        },
        {
            "buffer" : 0,
            "byteLength" : 65016,
            "byteOffset" : 448136
        },
        {
            "buffer" : 0,
            "byteLength" : 95232,
            "byteOffset" : 513152
        }
    ],
    "buffers" : [
        {
            "byteLength" : 608384,
            "uri" : "data:application/octet-stream;base64,"
        }
    ]
}
